<mxfile host="app.diagrams.net" modified="2024-05-26T16:17:14.609Z" agent="Mozilla/5.0 (Windows NT 10.0; Win64; x64) AppleWebKit/537.36 (KHTML, like Gecko) Chrome/125.0.0.0 Safari/537.36" etag="9l6yH0OOSPmUWmJ5fO8_" version="24.4.8" type="github">
  <diagram name="Page-1" id="UxOaTtIUIqS_tEpt3Vct">
    <mxGraphModel dx="1050" dy="522" grid="1" gridSize="10" guides="1" tooltips="1" connect="1" arrows="1" fold="1" page="1" pageScale="1" pageWidth="850" pageHeight="1100" math="0" shadow="0">
      <root>
        <mxCell id="0" />
        <mxCell id="1" parent="0" />
        <mxCell id="irKkEr3Q99a9lG1IQd4l-3" value="" style="edgeStyle=orthogonalEdgeStyle;rounded=0;orthogonalLoop=1;jettySize=auto;html=1;" edge="1" parent="1" source="irKkEr3Q99a9lG1IQd4l-1" target="irKkEr3Q99a9lG1IQd4l-2">
          <mxGeometry relative="1" as="geometry" />
        </mxCell>
        <mxCell id="irKkEr3Q99a9lG1IQd4l-7" value="" style="edgeStyle=orthogonalEdgeStyle;rounded=0;orthogonalLoop=1;jettySize=auto;html=1;" edge="1" parent="1" source="irKkEr3Q99a9lG1IQd4l-1" target="irKkEr3Q99a9lG1IQd4l-6">
          <mxGeometry relative="1" as="geometry" />
        </mxCell>
        <mxCell id="irKkEr3Q99a9lG1IQd4l-22" value="" style="edgeStyle=orthogonalEdgeStyle;rounded=0;orthogonalLoop=1;jettySize=auto;html=1;" edge="1" parent="1" source="irKkEr3Q99a9lG1IQd4l-1" target="irKkEr3Q99a9lG1IQd4l-21">
          <mxGeometry relative="1" as="geometry" />
        </mxCell>
        <mxCell id="irKkEr3Q99a9lG1IQd4l-1" value="Buy Sell Algorithm" style="rounded=1;whiteSpace=wrap;html=1;" vertex="1" parent="1">
          <mxGeometry x="360" y="390" width="120" height="50" as="geometry" />
        </mxCell>
        <mxCell id="irKkEr3Q99a9lG1IQd4l-16" style="edgeStyle=orthogonalEdgeStyle;rounded=0;orthogonalLoop=1;jettySize=auto;html=1;entryX=0.5;entryY=1;entryDx=0;entryDy=0;" edge="1" parent="1" source="irKkEr3Q99a9lG1IQd4l-2" target="irKkEr3Q99a9lG1IQd4l-15">
          <mxGeometry relative="1" as="geometry" />
        </mxCell>
        <mxCell id="irKkEr3Q99a9lG1IQd4l-2" value="Predictions for Data" style="rounded=1;whiteSpace=wrap;html=1;" vertex="1" parent="1">
          <mxGeometry x="360" y="300" width="120" height="50" as="geometry" />
        </mxCell>
        <mxCell id="irKkEr3Q99a9lG1IQd4l-10" style="edgeStyle=orthogonalEdgeStyle;rounded=0;orthogonalLoop=1;jettySize=auto;html=1;" edge="1" parent="1" source="irKkEr3Q99a9lG1IQd4l-6" target="irKkEr3Q99a9lG1IQd4l-8">
          <mxGeometry relative="1" as="geometry" />
        </mxCell>
        <mxCell id="irKkEr3Q99a9lG1IQd4l-26" style="edgeStyle=orthogonalEdgeStyle;rounded=0;orthogonalLoop=1;jettySize=auto;html=1;entryX=0.5;entryY=1;entryDx=0;entryDy=0;" edge="1" parent="1" source="irKkEr3Q99a9lG1IQd4l-6" target="irKkEr3Q99a9lG1IQd4l-21">
          <mxGeometry relative="1" as="geometry" />
        </mxCell>
        <mxCell id="irKkEr3Q99a9lG1IQd4l-28" value="" style="edgeStyle=orthogonalEdgeStyle;rounded=0;orthogonalLoop=1;jettySize=auto;html=1;" edge="1" parent="1" source="irKkEr3Q99a9lG1IQd4l-6" target="irKkEr3Q99a9lG1IQd4l-27">
          <mxGeometry relative="1" as="geometry" />
        </mxCell>
        <mxCell id="irKkEr3Q99a9lG1IQd4l-6" value="Optimization Algorithm" style="rounded=1;whiteSpace=wrap;html=1;" vertex="1" parent="1">
          <mxGeometry x="360" y="480" width="120" height="50" as="geometry" />
        </mxCell>
        <mxCell id="irKkEr3Q99a9lG1IQd4l-12" value="" style="edgeStyle=orthogonalEdgeStyle;rounded=0;orthogonalLoop=1;jettySize=auto;html=1;" edge="1" parent="1" source="irKkEr3Q99a9lG1IQd4l-8" target="irKkEr3Q99a9lG1IQd4l-11">
          <mxGeometry relative="1" as="geometry" />
        </mxCell>
        <mxCell id="irKkEr3Q99a9lG1IQd4l-43" style="edgeStyle=orthogonalEdgeStyle;rounded=0;orthogonalLoop=1;jettySize=auto;html=1;entryX=0.5;entryY=0;entryDx=0;entryDy=0;" edge="1" parent="1" source="irKkEr3Q99a9lG1IQd4l-8" target="irKkEr3Q99a9lG1IQd4l-42">
          <mxGeometry relative="1" as="geometry" />
        </mxCell>
        <mxCell id="irKkEr3Q99a9lG1IQd4l-49" style="edgeStyle=orthogonalEdgeStyle;rounded=0;orthogonalLoop=1;jettySize=auto;html=1;entryX=0;entryY=0.5;entryDx=0;entryDy=0;" edge="1" parent="1" source="irKkEr3Q99a9lG1IQd4l-8" target="irKkEr3Q99a9lG1IQd4l-48">
          <mxGeometry relative="1" as="geometry" />
        </mxCell>
        <mxCell id="irKkEr3Q99a9lG1IQd4l-8" value="Initial Ideas" style="rhombus;whiteSpace=wrap;html=1;" vertex="1" parent="1">
          <mxGeometry x="350" y="570" width="140" height="80" as="geometry" />
        </mxCell>
        <mxCell id="irKkEr3Q99a9lG1IQd4l-11" value="Mixed Integer Programming" style="ellipse;whiteSpace=wrap;html=1;" vertex="1" parent="1">
          <mxGeometry x="160" y="570" width="110" height="80" as="geometry" />
        </mxCell>
        <mxCell id="irKkEr3Q99a9lG1IQd4l-14" value="Advantages:&lt;div&gt;&lt;ul&gt;&lt;li&gt;Uses a premade library called pulp which makes stating the constraints more clear and concise and easy to implement in code&lt;/li&gt;&lt;/ul&gt;&lt;/div&gt;&lt;div style=&quot;&quot;&gt;Disadvantages&lt;/div&gt;" style="text;html=1;align=left;verticalAlign=top;whiteSpace=wrap;rounded=0;" vertex="1" parent="1">
          <mxGeometry x="130" y="660" width="190" height="280" as="geometry" />
        </mxCell>
        <mxCell id="irKkEr3Q99a9lG1IQd4l-18" value="" style="edgeStyle=orthogonalEdgeStyle;rounded=0;orthogonalLoop=1;jettySize=auto;html=1;" edge="1" parent="1" source="irKkEr3Q99a9lG1IQd4l-15">
          <mxGeometry relative="1" as="geometry">
            <mxPoint x="260" y="230" as="targetPoint" />
          </mxGeometry>
        </mxCell>
        <mxCell id="irKkEr3Q99a9lG1IQd4l-20" style="edgeStyle=orthogonalEdgeStyle;rounded=0;orthogonalLoop=1;jettySize=auto;html=1;entryX=1;entryY=0.5;entryDx=0;entryDy=0;" edge="1" parent="1" source="irKkEr3Q99a9lG1IQd4l-15" target="irKkEr3Q99a9lG1IQd4l-19">
          <mxGeometry relative="1" as="geometry" />
        </mxCell>
        <mxCell id="irKkEr3Q99a9lG1IQd4l-45" style="edgeStyle=orthogonalEdgeStyle;rounded=0;orthogonalLoop=1;jettySize=auto;html=1;entryX=0.5;entryY=1;entryDx=0;entryDy=0;" edge="1" parent="1" source="irKkEr3Q99a9lG1IQd4l-15" target="irKkEr3Q99a9lG1IQd4l-44">
          <mxGeometry relative="1" as="geometry" />
        </mxCell>
        <mxCell id="irKkEr3Q99a9lG1IQd4l-47" style="edgeStyle=orthogonalEdgeStyle;rounded=0;orthogonalLoop=1;jettySize=auto;html=1;entryX=0;entryY=0.5;entryDx=0;entryDy=0;" edge="1" parent="1" source="irKkEr3Q99a9lG1IQd4l-15" target="irKkEr3Q99a9lG1IQd4l-46">
          <mxGeometry relative="1" as="geometry" />
        </mxCell>
        <mxCell id="irKkEr3Q99a9lG1IQd4l-15" value="Initial Ideas" style="rhombus;whiteSpace=wrap;html=1;" vertex="1" parent="1">
          <mxGeometry x="350" y="190" width="140" height="80" as="geometry" />
        </mxCell>
        <mxCell id="irKkEr3Q99a9lG1IQd4l-19" value="AutoRegressive Integrated Moving Average (ARIMA)" style="ellipse;whiteSpace=wrap;html=1;" vertex="1" parent="1">
          <mxGeometry x="140" y="190" width="120" height="80" as="geometry" />
        </mxCell>
        <mxCell id="irKkEr3Q99a9lG1IQd4l-25" style="edgeStyle=orthogonalEdgeStyle;rounded=0;orthogonalLoop=1;jettySize=auto;html=1;entryX=0;entryY=0.5;entryDx=0;entryDy=0;" edge="1" parent="1" source="irKkEr3Q99a9lG1IQd4l-21" target="irKkEr3Q99a9lG1IQd4l-6">
          <mxGeometry relative="1" as="geometry">
            <Array as="points">
              <mxPoint x="240" y="505" />
            </Array>
          </mxGeometry>
        </mxCell>
        <mxCell id="irKkEr3Q99a9lG1IQd4l-36" style="edgeStyle=orthogonalEdgeStyle;rounded=0;orthogonalLoop=1;jettySize=auto;html=1;entryX=1;entryY=0.5;entryDx=0;entryDy=0;" edge="1" parent="1" source="irKkEr3Q99a9lG1IQd4l-21" target="irKkEr3Q99a9lG1IQd4l-35">
          <mxGeometry relative="1" as="geometry" />
        </mxCell>
        <mxCell id="irKkEr3Q99a9lG1IQd4l-21" value="Scheduling of Deferable Demands" style="whiteSpace=wrap;html=1;rounded=1;" vertex="1" parent="1">
          <mxGeometry x="180" y="385" width="120" height="60" as="geometry" />
        </mxCell>
        <mxCell id="irKkEr3Q99a9lG1IQd4l-39" style="edgeStyle=orthogonalEdgeStyle;rounded=0;orthogonalLoop=1;jettySize=auto;html=1;entryX=0;entryY=0.5;entryDx=0;entryDy=0;" edge="1" parent="1" source="irKkEr3Q99a9lG1IQd4l-27" target="irKkEr3Q99a9lG1IQd4l-38">
          <mxGeometry relative="1" as="geometry" />
        </mxCell>
        <mxCell id="irKkEr3Q99a9lG1IQd4l-54" style="edgeStyle=orthogonalEdgeStyle;rounded=0;orthogonalLoop=1;jettySize=auto;html=1;" edge="1" parent="1" source="irKkEr3Q99a9lG1IQd4l-27" target="irKkEr3Q99a9lG1IQd4l-53">
          <mxGeometry relative="1" as="geometry" />
        </mxCell>
        <mxCell id="irKkEr3Q99a9lG1IQd4l-27" value="Hardware Limitations" style="shape=step;perimeter=stepPerimeter;whiteSpace=wrap;html=1;fixedSize=1;rounded=1;" vertex="1" parent="1">
          <mxGeometry x="510" y="487.5" width="110" height="35" as="geometry" />
        </mxCell>
        <mxCell id="irKkEr3Q99a9lG1IQd4l-35" value="Integer Linear Programming&amp;nbsp;" style="ellipse;whiteSpace=wrap;html=1;" vertex="1" parent="1">
          <mxGeometry x="20" y="375" width="120" height="80" as="geometry" />
        </mxCell>
        <mxCell id="irKkEr3Q99a9lG1IQd4l-37" value="Only tried ILP as it is the most common solution for &#39;scheduling&#39; problems" style="text;html=1;align=left;verticalAlign=middle;whiteSpace=wrap;rounded=0;" vertex="1" parent="1">
          <mxGeometry x="30" y="480" width="130" height="30" as="geometry" />
        </mxCell>
        <mxCell id="irKkEr3Q99a9lG1IQd4l-38" value="Cannot buy and sell in one tick" style="rounded=0;whiteSpace=wrap;html=1;" vertex="1" parent="1">
          <mxGeometry x="670" y="385" width="110" height="37.5" as="geometry" />
        </mxCell>
        <mxCell id="irKkEr3Q99a9lG1IQd4l-42" value="Naive Solution" style="ellipse;whiteSpace=wrap;html=1;" vertex="1" parent="1">
          <mxGeometry x="360" y="690" width="120" height="80" as="geometry" />
        </mxCell>
        <mxCell id="irKkEr3Q99a9lG1IQd4l-44" value="Naive Solution" style="ellipse;whiteSpace=wrap;html=1;" vertex="1" parent="1">
          <mxGeometry x="360" y="80" width="120" height="80" as="geometry" />
        </mxCell>
        <mxCell id="irKkEr3Q99a9lG1IQd4l-46" value="Machine Learning" style="ellipse;whiteSpace=wrap;html=1;" vertex="1" parent="1">
          <mxGeometry x="560" y="190" width="120" height="80" as="geometry" />
        </mxCell>
        <mxCell id="irKkEr3Q99a9lG1IQd4l-48" value="Model Predictive Control (MPC)" style="ellipse;whiteSpace=wrap;html=1;" vertex="1" parent="1">
          <mxGeometry x="570" y="570" width="120" height="80" as="geometry" />
        </mxCell>
        <mxCell id="irKkEr3Q99a9lG1IQd4l-50" value="Advantages:&lt;div&gt;&lt;ul&gt;&lt;li&gt;&lt;br&gt;&lt;/li&gt;&lt;/ul&gt;&lt;/div&gt;&lt;div style=&quot;&quot;&gt;Disadvantages&lt;/div&gt;" style="text;html=1;align=left;verticalAlign=middle;whiteSpace=wrap;rounded=0;" vertex="1" parent="1">
          <mxGeometry x="140" y="280" width="190" height="60" as="geometry" />
        </mxCell>
        <mxCell id="irKkEr3Q99a9lG1IQd4l-51" value="Advantages:&lt;div&gt;&lt;ul&gt;&lt;li&gt;It updates the control in real time and slides the prediction window/horizon forward which is exactly what we intend to do with&lt;/li&gt;&lt;li&gt;Uses the a premade library called scipy which makes coding it out easier&amp;nbsp;&lt;/li&gt;&lt;/ul&gt;&lt;/div&gt;&lt;div style=&quot;&quot;&gt;Disadvantages&lt;/div&gt;" style="text;html=1;align=left;verticalAlign=top;whiteSpace=wrap;rounded=0;" vertex="1" parent="1">
          <mxGeometry x="580" y="660" width="190" height="310" as="geometry" />
        </mxCell>
        <mxCell id="irKkEr3Q99a9lG1IQd4l-52" value="Advantages:&lt;div&gt;&lt;br&gt;&lt;/div&gt;&lt;div style=&quot;&quot;&gt;Disadvantages&lt;/div&gt;" style="text;html=1;align=left;verticalAlign=middle;whiteSpace=wrap;rounded=0;" vertex="1" parent="1">
          <mxGeometry x="570" y="280" width="190" height="60" as="geometry" />
        </mxCell>
        <mxCell id="irKkEr3Q99a9lG1IQd4l-53" value="" style="rounded=0;whiteSpace=wrap;html=1;" vertex="1" parent="1">
          <mxGeometry x="670" y="455" width="110" height="35" as="geometry" />
        </mxCell>
        <mxCell id="irKkEr3Q99a9lG1IQd4l-55" value="Naive Solution is simply to buy and sell when it is above/below a certain threshould" style="text;html=1;align=center;verticalAlign=middle;whiteSpace=wrap;rounded=0;" vertex="1" parent="1">
          <mxGeometry x="350" y="800" width="150" height="30" as="geometry" />
        </mxCell>
      </root>
    </mxGraphModel>
  </diagram>
</mxfile>
